<svg xmlns="http://www.w3.org/2000/svg" viewBox="0 0 200 220" width="200" height="220" role="img" aria-label="Multi Shop"><title>Multi Shop</title><g transform="translate(0 0) scale(1)"><path d="M68 72V56a32 32 0 0 1 64 0v16" fill="none" stroke="#ffffff" stroke-width="14" stroke-linecap="round"/><rect x="20" y="64" width="160" height="148" rx="22" fill="#ffffff"/><clipPath id="c5"><rect x="20" y="64" width="160" height="148" rx="22"/></clipPath><g clip-path="url(#c5)"><rect x="20.00" y="186" width="27.27" height="26" fill="#2563eb"/><rect x="46.67" y="186" width="27.27" height="26" fill="#7c3aed"/><rect x="73.33" y="186" width="27.27" height="26" fill="#16a34a"/><rect x="100.00" y="186" width="27.27" height="26" fill="#f59e0b"/><rect x="126.67" y="186" width="27.27" height="26" fill="#dc2626"/><rect x="153.33" y="186" width="27.27" height="26" fill="#0d9488"/></g><path d="M60 164V124a20 20 0 0 1 40 0v40M100 124a20 20 0 0 1 40 0v40" fill="none" stroke="#ff4b14" stroke-width="16" stroke-linecap="round" stroke-linejoin="round"/></g></svg>